<?xml version="1.0" standalone="no"?>
<!DOCTYPE svg PUBLIC "-//W3C//DTD SVG 20010904//EN"
 "http://www.w3.org/TR/2001/REC-SVG-20010904/DTD/svg10.dtd">
<svg version="1.0" xmlns="http://www.w3.org/2000/svg"
 width="700.000000pt" height="700.000000pt" viewBox="0 0 700.000000 700.000000"
 preserveAspectRatio="xMidYMid meet">
<metadata>
Created by potrace 1.14, written by Peter Selinger 2001-2017
</metadata>
<g transform="translate(0.000000,700.000000) scale(0.100000,-0.100000)"
fill="#000000" stroke="none">
<path d="M3398 6395 c-2 -2 -38 -5 -80 -9 -43 -4 -83 -8 -90 -11 -7 -2 -26 -6
-43 -9 -238 -39 -499 -153 -705 -308 -477 -359 -737 -944 -677 -1523 24 -230
120 -464 342 -834 81 -136 104 -184 132 -275 53 -175 72 -238 82 -281 5 -22
37 -141 71 -265 34 -124 63 -232 65 -240 1 -8 15 -60 30 -115 15 -55 28 -107
30 -115 18 -84 34 -113 73 -129 20 -8 268 -11 888 -9 935 3 884 0 906 58 9 24
185 590 193 620 6 25 110 356 160 510 57 173 82 231 218 510 97 200 149 320
162 375 2 6 10 37 18 70 37 141 42 372 12 535 -2 14 -7 41 -9 60 -12 96 -76
288 -137 415 -63 129 -102 193 -188 305 -199 261 -471 458 -787 570 -121 43
-228 68 -372 86 -45 6 -289 13 -294 9z"/>
<path d="M3220 2184 c-30 -7 -68 -15 -85 -18 -32 -6 -43 -8 -115 -24 -25 -6
-61 -13 -80 -16 -19 -3 -87 -16 -150 -30 -132 -27 -160 -48 -160 -115 0 -43
35 -87 73 -93 12 -2 139 21 282 50 143 29 273 55 290 58 50 9 79 28 96 62 29
58 -10 129 -75 136 -11 2 -46 -3 -76 -10z"/>
<path d="M4248 2085 c-2 -2 -15 -6 -28 -9 -14 -2 -88 -18 -165 -35 -77 -16
-257 -55 -400 -86 -143 -31 -269 -58 -280 -61 -11 -2 -172 -37 -358 -78 -295
-64 -342 -76 -364 -98 -37 -38 -35 -94 6 -130 39 -35 57 -35 186 -4 6 2 28 6
50 11 58 11 62 12 160 34 50 11 101 22 115 24 14 3 43 10 65 15 22 6 51 13 65
16 14 2 36 7 50 10 14 3 36 8 50 10 21 4 151 32 185 40 6 1 37 8 70 15 33 7
87 18 120 26 33 8 71 16 85 19 14 2 111 23 215 46 105 23 199 43 210 46 85 16
116 108 56 167 -16 16 -83 32 -93 22z"/>
<path d="M4180 1745 c-30 -8 -66 -16 -80 -19 -73 -12 -389 -79 -417 -87 -83
-26 -87 -144 -5 -178 27 -11 67 -5 334 49 166 34 310 67 318 73 30 23 39 43
40 79 0 81 -72 113 -190 83z"/>
<path d="M2672 1354 c-65 -27 -61 -154 11 -299 99 -202 325 -349 632 -410 53
-11 268 -14 325 -5 113 18 134 22 207 46 313 102 509 315 527 570 3 46 -22
102 -46 106 -7 1 -376 2 -820 3 -617 1 -814 -1 -836 -11z"/>
</g>
</svg>
